<svg width="614" height="312" viewBox="0 0 614 312" fill="none" xmlns="http://www.w3.org/2000/svg">
<rect x="151" y="155.563" width="220" height="220" transform="rotate(-45 151 155.563)" fill="#3CFD5B"/>
<path d="M25.987 124.624L17.059 123.472V118.672H45.283V123.472L36.355 124.624V184.336L45.283 185.392V190H17.155V185.296L25.987 184.336V124.624ZM62.9778 124.624L55.4898 123.472V118.672H68.0658C70.0498 118.672 72.8978 118.544 76.6098 118.288C80.3218 118.032 83.1058 117.904 84.9618 117.904C96.8658 117.904 105.698 120.912 111.458 126.928C117.282 132.88 120.194 141.264 120.194 152.08C120.194 159.632 118.69 166.352 115.682 172.24C112.738 178.064 108.578 182.608 103.202 185.872C97.8258 189.136 91.6498 190.768 84.6738 190.768C83.1378 190.768 80.5138 190.64 76.8018 190.384C72.9618 190.128 70.0818 190 68.1618 190H55.0098V185.296L62.9778 184.336V124.624ZM73.1538 184.624C75.3938 185.136 78.2738 185.392 81.7938 185.392H84.6738C89.4738 185.328 93.6978 184.112 97.3458 181.744C101.058 179.376 103.938 175.856 105.986 171.184C108.034 166.448 109.058 160.72 109.058 154C109.058 143.888 106.85 136.208 102.434 130.96C98.0818 125.712 91.4898 123.088 82.6578 123.088C80.8018 123.088 78.5938 123.216 76.0338 123.472C74.9458 123.664 73.9858 123.76 73.1538 123.76V184.624ZM127.76 185.296L135.728 184.336V124.624L128.24 123.376V118.672H140.816C142.608 118.672 145.04 118.544 148.112 118.288C151.312 118.032 153.808 117.904 155.6 117.904C165.008 117.904 171.696 119.44 175.664 122.512C179.696 125.52 181.712 130.288 181.712 136.816C181.712 141.36 180.432 145.52 177.872 149.296C175.376 153.072 171.92 155.632 167.504 156.976C169.552 158.064 171.44 159.952 173.168 162.64C174.96 165.264 177.136 168.944 179.696 173.68C181.68 177.264 183.184 179.888 184.208 181.552C185.296 183.216 186.32 184.144 187.28 184.336L191.024 185.296V190H177.776C176.752 190 175.6 188.912 174.32 186.736C173.04 184.496 171.344 181.072 169.232 176.464C166.928 171.408 164.912 167.408 163.184 164.464C161.52 161.456 159.856 159.536 158.192 158.704C151.344 158.704 147.28 158.672 146 158.608V184.336L155.504 185.296V190H127.76V185.296ZM157.424 153.52C161.52 153.52 164.752 152.176 167.12 149.488C169.488 146.8 170.672 142.8 170.672 137.488C170.672 132.816 169.456 129.264 167.024 126.832C164.656 124.336 160.528 123.088 154.64 123.088C152.592 123.088 150.544 123.216 148.496 123.472C147.216 123.6 146.384 123.664 146 123.664V153.424C146.96 153.488 148.944 153.52 151.952 153.52H157.424ZM203.322 124.624L195.45 123.472V118.672H244.314L245.658 133.552H240.186L237.402 124.24L213.594 123.664V150.736L229.626 150.448L230.97 142.48H236.25V164.56H230.97L229.626 156.304L213.594 156.016V184.624L240.666 183.664L245.754 171.568L251.418 173.296L248.634 190H195.354V185.296L203.322 184.336V124.624ZM281.309 118.096H291.869L315.197 184.336L321.149 185.296V190H295.805V185.296L303.773 184.336L299.261 170.128H271.229L266.717 184.336L274.973 185.296V190H252.221V185.296L258.173 184.336L281.309 118.096ZM287.357 133.456L284.957 125.008L282.653 133.648L272.957 164.464H297.437L287.357 133.456ZM335.682 124.624L325.218 123.472V118.672H350.658L364.194 161.872L367.362 174.064L370.242 161.872L383.682 118.672H408.93V123.472L398.37 124.624L406.05 184.24L414.402 185.296V190H386.754V185.296L395.49 184.336L391.17 141.232L389.154 122.704L385.122 136.528L369.09 186.736H362.85L347.298 140.752L341.634 122.608L339.906 141.232L336.066 184.336L345.57 185.296V190H320.514V185.296L328.674 184.336L335.682 124.624ZM427.384 124.624L419.512 123.472V118.672H468.376L469.72 133.552H464.248L461.464 124.24L437.656 123.664V150.736L453.688 150.448L455.032 142.48H460.312V164.56H455.032L453.688 156.304L437.656 156.016V184.624L464.728 183.664L469.816 171.568L475.48 173.296L472.696 190H419.416V185.296L427.384 184.336V124.624ZM481.947 185.296L489.915 184.336V124.624L482.427 123.376V118.672H495.003C496.795 118.672 499.227 118.544 502.299 118.288C505.499 118.032 507.995 117.904 509.787 117.904C519.195 117.904 525.883 119.44 529.851 122.512C533.883 125.52 535.899 130.288 535.899 136.816C535.899 141.36 534.619 145.52 532.059 149.296C529.563 153.072 526.107 155.632 521.691 156.976C523.739 158.064 525.627 159.952 527.355 162.64C529.147 165.264 531.323 168.944 533.883 173.68C535.867 177.264 537.371 179.888 538.395 181.552C539.483 183.216 540.507 184.144 541.467 184.336L545.211 185.296V190H531.963C530.939 190 529.787 188.912 528.507 186.736C527.227 184.496 525.531 181.072 523.419 176.464C521.115 171.408 519.099 167.408 517.371 164.464C515.707 161.456 514.043 159.536 512.379 158.704C505.531 158.704 501.467 158.672 500.187 158.608V184.336L509.691 185.296V190H481.947V185.296ZM511.611 153.52C515.707 153.52 518.939 152.176 521.307 149.488C523.675 146.8 524.859 142.8 524.859 137.488C524.859 132.816 523.643 129.264 521.211 126.832C518.843 124.336 514.715 123.088 508.827 123.088C506.779 123.088 504.731 123.216 502.683 123.472C501.403 123.6 500.571 123.664 500.187 123.664V153.424C501.147 153.488 503.131 153.52 506.139 153.52H511.611ZM572.965 191.056C569.637 191.056 566.661 190.768 564.037 190.192C561.413 189.616 558.533 188.848 555.397 187.888C553.477 187.184 552.037 186.8 551.077 186.736L551.845 169.36H557.989L559.621 181.84C560.709 182.864 562.469 183.792 564.901 184.624C567.397 185.392 570.117 185.776 573.061 185.776C577.925 185.776 581.605 184.688 584.101 182.512C586.661 180.336 587.941 177.328 587.941 173.488C587.941 170.992 587.237 168.848 585.829 167.056C584.485 165.264 582.661 163.728 580.357 162.448C578.117 161.168 575.013 159.664 571.045 157.936C567.461 156.336 564.325 154.704 561.637 153.04C559.013 151.376 556.709 149.168 554.725 146.416C552.805 143.6 551.845 140.24 551.845 136.336C551.845 132.816 552.773 129.68 554.629 126.928C556.549 124.112 559.269 121.904 562.789 120.304C566.373 118.704 570.533 117.904 575.269 117.904C578.213 117.904 580.805 118.128 583.045 118.576C585.349 119.024 587.941 119.632 590.821 120.4C592.101 120.848 593.189 121.136 594.085 121.264L593.509 137.392H587.653L585.733 125.584C585.093 124.944 583.749 124.336 581.701 123.76C579.717 123.184 577.541 122.896 575.173 122.896C570.757 122.896 567.397 123.824 565.093 125.68C562.853 127.536 561.733 130.224 561.733 133.744C561.733 136.304 562.405 138.448 563.749 140.176C565.157 141.904 566.885 143.376 568.933 144.592C570.981 145.808 574.245 147.472 578.725 149.584C582.885 151.568 586.277 153.36 588.901 154.96C591.525 156.56 593.765 158.672 595.621 161.296C597.541 163.856 598.501 166.928 598.501 170.512C598.501 173.904 597.541 177.168 595.621 180.304C593.765 183.44 590.885 186.032 586.981 188.08C583.141 190.064 578.469 191.056 572.965 191.056Z" fill="white"/>
</svg>
