<svg width="614" height="312" fill="none" xmlns="http://www.w3.org/2000/svg"><path fill="#3CFD5B" d="M151 155.563L306.563 0l155.564 155.563-155.564 155.563z"/><path d="M25.987 124.624l-8.928-1.152v-4.8h28.224v4.8l-8.928 1.152v59.712l8.928 1.056V190H17.155v-4.704l8.832-.96v-59.712zm36.99 0l-7.487-1.152v-4.8h12.576c1.984 0 4.832-.128 8.544-.384 3.712-.256 6.496-.384 8.352-.384 11.904 0 20.736 3.008 26.496 9.024 5.824 5.952 8.736 14.336 8.736 25.152 0 7.552-1.504 14.272-4.512 20.16-2.944 5.824-7.104 10.368-12.48 13.632-5.376 3.264-11.552 4.896-18.528 4.896-1.536 0-4.16-.128-7.872-.384-3.84-.256-6.72-.384-8.64-.384H55.01v-4.704l7.968-.96v-59.712zm10.177 60c2.24.512 5.12.768 8.64.768h2.88c4.8-.064 9.024-1.28 12.672-3.648 3.712-2.368 6.592-5.888 8.64-10.56 2.048-4.736 3.072-10.464 3.072-17.184 0-10.112-2.208-17.792-6.624-23.04-4.352-5.248-10.944-7.872-19.776-7.872-1.856 0-4.064.128-6.624.384-1.088.192-2.048.288-2.88.288v60.864zm54.606.672l7.968-.96v-59.712l-7.488-1.248v-4.704h12.576c1.792 0 4.224-.128 7.296-.384 3.2-.256 5.696-.384 7.488-.384 9.408 0 16.096 1.536 20.064 4.608 4.032 3.008 6.048 7.776 6.048 14.304 0 4.544-1.28 8.704-3.84 12.48-2.496 3.776-5.952 6.336-10.368 7.68 2.048 1.088 3.936 2.976 5.664 5.664 1.792 2.624 3.968 6.304 6.528 11.04 1.984 3.584 3.488 6.208 4.512 7.872 1.088 1.664 2.112 2.592 3.072 2.784l3.744.96V190h-13.248c-1.024 0-2.176-1.088-3.456-3.264-1.28-2.24-2.976-5.664-5.088-10.272-2.304-5.056-4.32-9.056-6.048-12-1.664-3.008-3.328-4.928-4.992-5.76-6.848 0-10.912-.032-12.192-.096v25.728l9.504.96V190H127.76v-4.704zm29.664-31.776c4.096 0 7.328-1.344 9.696-4.032 2.368-2.688 3.552-6.688 3.552-12 0-4.672-1.216-8.224-3.648-10.656-2.368-2.496-6.496-3.744-12.384-3.744-2.048 0-4.096.128-6.144.384-1.28.128-2.112.192-2.496.192v29.76c.96.064 2.944.096 5.952.096h5.472zm45.898-28.896l-7.872-1.152v-4.8h48.864l1.344 14.88h-5.472l-2.784-9.312-23.808-.576v27.072l16.032-.288 1.344-7.968h5.28v22.08h-5.28l-1.344-8.256-16.032-.288v28.608l27.072-.96 5.088-12.096 5.664 1.728L248.634 190h-53.28v-4.704l7.968-.96v-59.712zm77.987-6.528h10.56l23.328 66.24 5.952.96V190h-25.344v-4.704l7.968-.96-4.512-14.208h-28.032l-4.512 14.208 8.256.96V190h-22.752v-4.704l5.952-.96 23.136-66.24zm6.048 15.36l-2.4-8.448-2.304 8.64-9.696 30.816h24.48l-10.08-31.008zm48.325-8.832l-10.464-1.152v-4.8h25.44l13.536 43.2 3.168 12.192 2.88-12.192 13.44-43.2h25.248v4.8l-10.56 1.152 7.68 59.616 8.352 1.056V190h-27.648v-4.704l8.736-.96-4.32-43.104-2.016-18.528-4.032 13.824-16.032 50.208h-6.24l-15.552-45.984-5.664-18.144-1.728 18.624-3.84 43.104 9.504.96V190h-25.056v-4.704l8.16-.96 7.008-59.712zm91.702 0l-7.872-1.152v-4.8h48.864l1.344 14.88h-5.472l-2.784-9.312-23.808-.576v27.072l16.032-.288 1.344-7.968h5.28v22.08h-5.28l-1.344-8.256-16.032-.288v28.608l27.072-.96 5.088-12.096 5.664 1.728L472.696 190h-53.28v-4.704l7.968-.96v-59.712zm54.563 60.672l7.968-.96v-59.712l-7.488-1.248v-4.704h12.576c1.792 0 4.224-.128 7.296-.384 3.2-.256 5.696-.384 7.488-.384 9.408 0 16.096 1.536 20.064 4.608 4.032 3.008 6.048 7.776 6.048 14.304 0 4.544-1.28 8.704-3.84 12.48-2.496 3.776-5.952 6.336-10.368 7.68 2.048 1.088 3.936 2.976 5.664 5.664 1.792 2.624 3.968 6.304 6.528 11.04 1.984 3.584 3.488 6.208 4.512 7.872 1.088 1.664 2.112 2.592 3.072 2.784l3.744.96V190h-13.248c-1.024 0-2.176-1.088-3.456-3.264-1.28-2.24-2.976-5.664-5.088-10.272-2.304-5.056-4.32-9.056-6.048-12-1.664-3.008-3.328-4.928-4.992-5.76-6.848 0-10.912-.032-12.192-.096v25.728l9.504.96V190h-27.744v-4.704zm29.664-31.776c4.096 0 7.328-1.344 9.696-4.032 2.368-2.688 3.552-6.688 3.552-12 0-4.672-1.216-8.224-3.648-10.656-2.368-2.496-6.496-3.744-12.384-3.744-2.048 0-4.096.128-6.144.384-1.28.128-2.112.192-2.496.192v29.76c.96.064 2.944.096 5.952.096h5.472zm61.354 37.536c-3.328 0-6.304-.288-8.928-.864-2.624-.576-5.504-1.344-8.64-2.304-1.92-.704-3.36-1.088-4.32-1.152l.768-17.376h6.144l1.632 12.48c1.088 1.024 2.848 1.952 5.28 2.784 2.496.768 5.216 1.152 8.16 1.152 4.864 0 8.544-1.088 11.04-3.264 2.56-2.176 3.84-5.184 3.84-9.024 0-2.496-.704-4.64-2.112-6.432-1.344-1.792-3.168-3.328-5.472-4.608-2.24-1.28-5.344-2.784-9.312-4.512-3.584-1.6-6.72-3.232-9.408-4.896-2.624-1.664-4.928-3.872-6.912-6.624-1.92-2.816-2.88-6.176-2.88-10.08 0-3.52.928-6.656 2.784-9.408 1.92-2.816 4.64-5.024 8.16-6.624 3.584-1.6 7.744-2.4 12.48-2.4 2.944 0 5.536.224 7.776.672 2.304.448 4.896 1.056 7.776 1.824 1.28.448 2.368.736 3.264.864l-.576 16.128h-5.856l-1.92-11.808c-.64-.64-1.984-1.248-4.032-1.824-1.984-.576-4.16-.864-6.528-.864-4.416 0-7.776.928-10.08 2.784-2.24 1.856-3.36 4.544-3.36 8.064 0 2.56.672 4.704 2.016 6.432 1.408 1.728 3.136 3.2 5.184 4.416 2.048 1.216 5.312 2.88 9.792 4.992 4.16 1.984 7.552 3.776 10.176 5.376 2.624 1.6 4.864 3.712 6.72 6.336 1.92 2.56 2.88 5.632 2.88 9.216 0 3.392-.96 6.656-2.88 9.792-1.856 3.136-4.736 5.728-8.64 7.776-3.84 1.984-8.512 2.976-14.016 2.976z" fill="#fff"/></svg>